<?xml version="1.0" encoding="UTF-8"?>
<svg version="1.1" xmlns="http://www.w3.org/2000/svg" width="508" height="412">
<path d="M0 0 C167.64 0 335.28 0 508 0 C508 135.96 508 271.92 508 412 C340.36 412 172.72 412 0 412 C0 276.04 0 140.08 0 0 Z " fill="#FEFEFE" transform="translate(0,0)"/>
<path d="M0 0 C2.61231795 1.30615898 2.64461983 2.2605499 3.5859375 4.98046875 C3.87509033 5.80780518 4.16424316 6.6351416 4.4621582 7.48754883 C4.763396 8.37853271 5.06463379 9.2695166 5.375 10.1875 C5.84135864 11.55201294 5.84135864 11.55201294 6.31713867 12.9440918 C7.22486106 15.62514936 8.11683568 18.31076208 9 21 C9.2254248 21.68481445 9.45084961 22.36962891 9.68310547 23.07519531 C21.69321048 60.24040112 15.65952656 101.59106459 -1.7890625 135.90625 C-4.79177755 141.57312593 -8.17216897 146.85439107 -12 152 C-12.39912598 152.54430664 -12.79825195 153.08861328 -13.20947266 153.64941406 C-27.6302989 173.19654394 -45.45396725 188.71398285 -67 200 C-68.23363281 200.68449219 -68.23363281 200.68449219 -69.4921875 201.3828125 C-90.55827325 212.66061598 -113.83199526 216.45001455 -137.4375 216.5625 C-138.23280121 216.5712616 -139.02810242 216.58002319 -139.84750366 216.58905029 C-178.20795919 216.8792209 -214.52754884 198.90666379 -242 173 C-242.67417969 172.37867188 -243.34835938 171.75734375 -244.04296875 171.1171875 C-249.61969906 165.79647475 -254.27333848 159.81046008 -258.81689453 153.60986328 C-259.87144421 152.17492713 -260.94793645 150.75617587 -262.02734375 149.33984375 C-271.48661333 136.20519335 -278.08549498 120.42251768 -282.5625 104.9375 C-282.9030542 103.76392944 -282.9030542 103.76392944 -283.25048828 102.56665039 C-286.53492184 90.27490661 -287.39198438 77.67520218 -287.375 65 C-287.37478851 64.33556885 -287.37457703 63.6711377 -287.37435913 62.98657227 C-287.30680315 41.50953367 -283.21080234 21.44502716 -274 2 C-272.33219221 4.99503441 -271.57334537 7.62194427 -271.03515625 11 C-270.8767627 11.96357422 -270.71836914 12.92714844 -270.55517578 13.91992188 C-270.39259277 14.93634766 -270.23000977 15.95277344 -270.0625 17 C-266.50506028 38.12903588 -260.80700923 58.09771666 -247 75 C-246.47792969 75.66773438 -245.95585937 76.33546875 -245.41796875 77.0234375 C-240.96731564 82.46428275 -235.91950617 86.25556819 -230 90 C-229.30261719 90.4640625 -228.60523438 90.928125 -227.88671875 91.40625 C-214.82643463 99.47361947 -198.74521695 101.09418196 -183.94580078 97.86499023 C-176.61485235 96.07636715 -169.70714081 93.46443278 -162.79296875 90.46484375 C-153.94273029 86.88574773 -145.46586214 85.41661755 -135.9375 85.4375 C-134.85275391 85.4384668 -133.76800781 85.43943359 -132.65039062 85.44042969 C-119.93199825 85.71430657 -109.49143224 89.86592219 -98.1015625 95.12109375 C-83.37010259 101.28202029 -66.76522275 100.61651253 -52 95 C-35.74952492 87.55770268 -25.00647475 76.2383387 -16 61 C-15.49855469 60.15953125 -14.99710937 59.3190625 -14.48046875 58.453125 C-4.84206021 40.70621404 -1.7572189 19.84876973 0 0 Z " fill="#222021" transform="translate(386,176)"/>
<path d="M0 0 C4.43996334 3.26312281 8.73828885 6.61752844 12.9375 10.1875 C20.15066895 16.15772176 28.07906233 21.03200275 36 26 C34.42519726 44.50327496 26.11665585 61.12766545 14 75 C13.20722656 76.00740234 13.20722656 76.00740234 12.3984375 77.03515625 C-1.40053735 94.13093051 -22.66343828 103.84589957 -44 107 C-47.61328125 107.12109375 -47.61328125 107.12109375 -50 107 C-49.41992188 107.68964844 -48.83984375 108.37929687 -48.2421875 109.08984375 C-44.49298919 113.60001795 -40.76157513 118.12952076 -37.3125 122.875 C-36.81363281 123.55304688 -36.31476563 124.23109375 -35.80078125 124.9296875 C-35 127 -35 127 -35.6171875 129.4453125 C-44.20876761 145.3178927 -60.47614266 157.89392181 -75 168 C-75.89936279 168.62648437 -75.89936279 168.62648437 -76.81689453 169.265625 C-85.76485804 175.41906684 -95.15022151 180.44854694 -105 185 C-105.8142041 185.37688965 -106.6284082 185.7537793 -107.46728516 186.14208984 C-138.02726302 200.12540234 -166.3372388 204.74891403 -198.59521484 193.05957031 C-204.17005597 190.93200013 -209.59928571 188.53354905 -215 186 C-215.69673828 185.67773438 -216.39347656 185.35546875 -217.11132812 185.0234375 C-240.15420574 174.27737514 -277.41563246 154.19987367 -287 129 C-282.35448723 110.87676499 -258.10198071 93.84824933 -243 84 C-242.29359375 83.51917969 -241.5871875 83.03835937 -240.859375 82.54296875 C-219.50923408 68.41419902 -193.21741796 62.20630018 -168 61 C-166.21142578 60.89365234 -166.21142578 60.89365234 -164.38671875 60.78515625 C-134.38235609 59.86927216 -103.03160331 68.31226446 -78 85 C-77.86722656 84.18015625 -77.73445312 83.3603125 -77.59765625 82.515625 C-77.42105469 81.43796875 -77.24445313 80.3603125 -77.0625 79.25 C-76.88847656 78.18265625 -76.71445312 77.1153125 -76.53515625 76.015625 C-76 73 -76 73 -75.453125 70.9375 C-72.74258971 59.34762495 -76.14348228 45.13853143 -82.25 35.125 C-82.77078125 34.36445312 -83.2915625 33.60390625 -83.828125 32.8203125 C-85 31 -85 31 -85 29 C-60.43012066 25.41834791 -60.43012066 25.41834791 -48 26 C-41.91826145 40.87853895 -41.87420695 57.1170595 -48 72 C-48.48533203 73.25876953 -48.48533203 73.25876953 -48.98046875 74.54296875 C-51.04061088 79.56298855 -53.70446743 83.69749915 -57 88 C-48.10817193 83.90002164 -40.33320872 79.61970733 -33 73 C-32.37738281 72.44699219 -31.75476563 71.89398438 -31.11328125 71.32421875 C-11.09354966 52.47417934 -3.55293417 26.31482138 0 0 Z " fill="#232021" transform="translate(411,31)"/>
<path d="M0 0 C23.73314885 0.7534333 51.83596058 17.09156403 68 34 C68 34.33 68 34.66 68 35 C67.01 35.185625 66.02 35.37125 65 35.5625 C61.58570651 36.51244456 59.58895265 38.04069618 57 40.4375 C50.78617533 46.12955313 45.26894719 47.59979574 36.9296875 47.33984375 C29.53694869 46.48228605 25.30440802 42.77823726 20.54296875 37.29296875 C17.10696717 32.18680943 15.67669972 28.27213531 16.3972168 22.10058594 C16.80506889 18.45133698 16.71051341 15.64928614 16 12 C12.7957309 8.9129053 10.15276487 7.46906861 6.13671875 5.578125 C3.03441601 4.01731515 1.76214321 2.9263028 0 0 Z " fill="#232121" transform="translate(147,213)"/>
<path d="M0 0 C0 0.66 0 1.32 0 2 C-2.22003132 3.6442478 -4.42299868 5.14753884 -6.75 6.625 C-7.38421875 7.04523438 -8.0184375 7.46546875 -8.671875 7.8984375 C-12.13472328 10.12043182 -13.78907329 11 -18 11 C-17.67773438 11.71800781 -17.35546875 12.43601563 -17.0234375 13.17578125 C-14.43371253 20.32223605 -15.53597319 27.88472486 -18.60546875 34.70703125 C-22.31313927 40.80339706 -28.18762586 45.03711254 -35 47 C-43.10554221 48.1132612 -49.21731316 46.54650047 -56 42 C-57.66666667 40.33333333 -59.33333333 38.66666667 -61 37 C-63.3336321 36.04488475 -65.5200405 35.53489323 -68 35 C-53.72778444 19.7763034 -34.00212119 9.16232507 -14.375 2.5 C-13.62903564 2.24460449 -12.88307129 1.98920898 -12.11450195 1.72607422 C-7.94847143 0.38194964 -4.43250584 -0.27965337 0 0 Z " fill="#232021" transform="translate(353,213)"/>
<path d="M0 0 C0 0.33 0 0.66 0 1 C-5.22577406 2.07064639 -10.25559625 2.149626 -15.5625 2.125 C-16.39974609 2.12886719 -17.23699219 2.13273437 -18.09960938 2.13671875 C-22.19589002 2.13023216 -26.00501048 2.0293838 -30 1 C-30 0.67 -30 0.34 -30 0 C-20.07761324 -1.58758188 -9.92238676 -1.58758188 0 0 Z " fill="#282727" transform="translate(265,93)"/>
<path d="M0 0 C1.60495567 0.11442461 3.20898119 0.24194694 4.8125 0.375 C5.70582031 0.44460937 6.59914062 0.51421875 7.51953125 0.5859375 C10 1 10 1 13 3 C13.33 3.66 13.66 4.32 14 5 C13.34 5 12.68 5 12 5 C12 5.66 12 6.32 12 7 C11.01 7.33 10.02 7.66 9 8 C6.9921875 6.85546875 6.9921875 6.85546875 4.875 5.1875 C4.17117187 4.64480469 3.46734375 4.10210937 2.7421875 3.54296875 C1 2 1 2 0 0 Z " fill="#262424" transform="translate(147,213)"/>
<path d="M0 0 C0 0.33 0 0.66 0 1 C-0.95712891 1.19916016 -0.95712891 1.19916016 -1.93359375 1.40234375 C-3.17302734 1.66724609 -3.17302734 1.66724609 -4.4375 1.9375 C-5.26121094 2.11152344 -6.08492188 2.28554688 -6.93359375 2.46484375 C-8.97661204 2.80752994 -8.97661204 2.80752994 -10 4 C-11.99541896 4.22528924 -13.99159864 4.44761095 -15.9921875 4.62109375 C-18.30715407 4.92253842 -18.30715407 4.92253842 -21 7 C-21.66 5.35 -22.32 3.7 -23 2 C-7.25512528 -0.29612756 -7.25512528 -0.29612756 0 0 Z " fill="#333232" transform="translate(349,58)"/>
<path d="M0 0 C0 0.66 0 1.32 0 2 C-2.31 3.32 -4.62 4.64 -7 6 C-7.66 5.34 -8.32 4.68 -9 4 C-8.67 3.34 -8.34 2.68 -8 2 C-8.66 1.67 -9.32 1.34 -10 1 C-6.61981469 -0.04005702 -3.5219721 -0.08004482 0 0 Z " fill="#393938" transform="translate(353,213)"/>
<path d="M0 0 C3.3 0.33 6.6 0.66 10 1 C9.01 1.33 8.02 1.66 7 2 C6.67 2.99 6.34 3.98 6 5 C2.83884224 3.63016497 2.0072908 3.0109362 0 0 Z " fill="#363635" transform="translate(147,213)"/>
<path d="M0 0 C1.73543126 2.60314689 2.61121812 3.98694043 3 7 C2.34 7.66 1.68 8.32 1 9 C0.34 8.67 -0.32 8.34 -1 8 C-1.125 2.25 -1.125 2.25 0 0 Z " fill="#2B2A29" transform="translate(388,180)"/>
<path d="M0 0 C0.99 0.33 1.98 0.66 3 1 C-0.465 3.97 -0.465 3.97 -4 7 C-3.04065919 3.16263678 -2.76390737 2.40339772 0 0 Z " fill="#2A2929" transform="translate(140,138)"/>
</svg>
